<svg width="898" height="458" viewBox="0 0 898 458" fill="none" xmlns="http://www.w3.org/2000/svg">
<mask id="mask0_716_6614" style="mask-type:alpha" maskUnits="userSpaceOnUse" x="0" y="0" width="898" height="458">
<rect y="0.736816" width="898" height="456.875" fill="#D9D9D9"/>
</mask>
<g mask="url(#mask0_716_6614)">
<path d="M145.856 358.507H0V308.48L150.396 106.099H229.913V294.837H274.896V358.507H229.913V423.998H145.856V358.507ZM158.121 294.837V203.88L91.3328 294.837H158.121Z" fill="#080809"/>
<path d="M766.953 358.507H621.102V308.48L771.498 106.099H851.014V294.837H895.998V358.507H851.014V423.998H766.953V358.507ZM779.223 294.837V203.88L712.43 294.837H779.223Z" fill="#080809"/>
<path opacity="0.12" d="M745.835 442.817C745.835 460.712 682.74 459.026 564.836 451.999C398.957 442.113 317.191 431.425 317.191 413.529C317.191 395.633 393.852 407.692 512.585 407.692C631.318 407.692 745.835 424.916 745.835 442.817Z" fill="#52667E"/>
<path d="M439.934 409.846C439.934 409.846 559.153 363.715 555.668 286.549C552.182 209.384 589.413 90.7793 682.44 120.785C775.467 150.786 682.44 311.588 682.44 311.588C682.44 311.588 718.468 203.634 700.454 162.21C682.44 120.785 604.067 135.081 599.813 205.654C595.56 276.228 599.554 364.724 539.797 396.731C480.039 428.738 439.934 409.846 439.934 409.846Z" fill="#F96E8B"/>
<mask id="mask1_716_6614" style="mask-type:luminance" maskUnits="userSpaceOnUse" x="439" y="116" width="285" height="300">
<path d="M439.934 409.846C439.934 409.846 559.153 363.715 555.668 286.549C552.182 209.384 589.413 90.7796 682.44 120.785C775.467 150.786 682.44 311.589 682.44 311.589C682.44 311.589 718.468 203.635 700.454 162.21C682.44 120.785 604.067 135.081 599.813 205.655C595.56 276.228 599.554 364.725 539.797 396.731C480.039 428.738 439.934 409.846 439.934 409.846Z" fill="white"/>
</mask>
<g mask="url(#mask1_716_6614)">
<path d="M685.396 266.407C684.267 266.407 683.137 266.384 682.008 266.337L682.096 264.202C694.236 264.697 706.562 262.451 717.753 257.711L718.586 259.68C708.145 264.104 696.74 266.407 685.396 266.407Z" fill="#E7473C"/>
</g>
<mask id="mask2_716_6614" style="mask-type:luminance" maskUnits="userSpaceOnUse" x="439" y="116" width="285" height="300">
<path d="M439.934 409.846C439.934 409.846 559.153 363.715 555.668 286.549C552.182 209.384 589.413 90.7796 682.44 120.785C775.467 150.786 682.44 311.589 682.44 311.589C682.44 311.589 718.468 203.635 700.454 162.21C682.44 120.785 604.067 135.081 599.813 205.655C595.56 276.228 599.554 364.725 539.797 396.731C480.039 428.738 439.934 409.846 439.934 409.846Z" fill="white"/>
</mask>
<g mask="url(#mask2_716_6614)">
<path d="M694.212 235.257L693.754 233.168C706.445 230.388 719.141 226.914 731.48 222.837L732.151 224.871C719.743 228.971 706.977 232.464 694.212 235.257Z" fill="#E7473C"/>
</g>
<mask id="mask3_716_6614" style="mask-type:luminance" maskUnits="userSpaceOnUse" x="439" y="116" width="285" height="300">
<path d="M439.934 409.846C439.934 409.846 559.153 363.715 555.668 286.549C552.182 209.384 589.413 90.7796 682.44 120.785C775.467 150.786 682.44 311.589 682.44 311.589C682.44 311.589 718.468 203.635 700.454 162.21C682.44 120.785 604.067 135.081 599.813 205.655C595.56 276.228 599.554 364.725 539.797 396.731C480.039 428.738 439.934 409.846 439.934 409.846Z" fill="white"/>
</mask>
<g mask="url(#mask3_716_6614)">
<path d="M696.631 195.648L696.34 193.531C708.975 191.775 719.866 182.765 728.614 175.529L729.975 177.178C721.019 184.59 709.869 193.809 696.631 195.648Z" fill="#E7473C"/>
</g>
<mask id="mask4_716_6614" style="mask-type:luminance" maskUnits="userSpaceOnUse" x="439" y="116" width="285" height="300">
<path d="M439.934 409.846C439.934 409.846 559.153 363.715 555.668 286.549C552.182 209.384 589.413 90.7796 682.44 120.785C775.467 150.786 682.44 311.589 682.44 311.589C682.44 311.589 718.468 203.635 700.454 162.21C682.44 120.785 604.067 135.081 599.813 205.655C595.56 276.228 599.554 364.725 539.797 396.731C480.039 428.738 439.934 409.846 439.934 409.846Z" fill="white"/>
</mask>
<g mask="url(#mask4_716_6614)">
<path d="M676.797 153.547L676.047 151.546C679.518 150.244 682.99 148.808 686.368 147.275C694.149 143.754 702.753 139.107 707.853 131.32C707.83 131.269 707.812 131.218 707.793 131.162C707.604 130.542 707.965 129.939 708.418 129.671C708.913 129.374 709.52 129.444 709.927 129.847C710.126 130.046 710.719 130.782 709.992 131.95C704.604 140.576 695.01 145.713 687.252 149.225C683.827 150.772 680.31 152.227 676.797 153.547ZM708.955 131.621C709.149 131.644 709.344 131.607 709.515 131.505C709.871 131.292 709.936 130.866 709.839 130.542C709.709 130.115 709.298 129.814 708.872 129.837L708.955 131.621Z" fill="#E7473C"/>
</g>
<mask id="mask5_716_6614" style="mask-type:luminance" maskUnits="userSpaceOnUse" x="439" y="116" width="285" height="300">
<path d="M439.934 409.846C439.934 409.846 559.153 363.715 555.668 286.549C552.182 209.384 589.413 90.7796 682.44 120.785C775.467 150.786 682.44 311.589 682.44 311.589C682.44 311.589 718.468 203.635 700.454 162.21C682.44 120.785 604.067 135.081 599.813 205.655C595.56 276.228 599.554 364.725 539.797 396.731C480.039 428.738 439.934 409.846 439.934 409.846Z" fill="white"/>
</mask>
<g mask="url(#mask5_716_6614)">
<path d="M640.691 149.78L638.766 148.854C645.315 135.187 655.187 123.157 667.309 114.067L668.591 115.781C656.738 124.662 647.092 136.42 640.691 149.78Z" fill="#E7473C"/>
</g>
<mask id="mask6_716_6614" style="mask-type:luminance" maskUnits="userSpaceOnUse" x="439" y="116" width="285" height="300">
<path d="M439.934 409.846C439.934 409.846 559.153 363.715 555.668 286.549C552.182 209.384 589.413 90.7796 682.44 120.785C775.467 150.786 682.44 311.589 682.44 311.589C682.44 311.589 718.468 203.635 700.454 162.21C682.44 120.785 604.067 135.081 599.813 205.655C595.56 276.228 599.554 364.725 539.797 396.731C480.039 428.738 439.934 409.846 439.934 409.846Z" fill="white"/>
</mask>
<g mask="url(#mask6_716_6614)">
<path d="M612.198 170.006C610.24 154.102 611.119 138.129 614.817 122.536L616.895 123.031C613.258 138.375 612.387 154.093 614.317 169.742L612.198 170.006Z" fill="#E7473C"/>
</g>
<mask id="mask7_716_6614" style="mask-type:luminance" maskUnits="userSpaceOnUse" x="439" y="116" width="285" height="300">
<path d="M439.934 409.846C439.934 409.846 559.153 363.715 555.668 286.549C552.182 209.384 589.413 90.7796 682.44 120.785C775.467 150.786 682.44 311.589 682.44 311.589C682.44 311.589 718.468 203.635 700.454 162.21C682.44 120.785 604.067 135.081 599.813 205.655C595.56 276.228 599.554 364.725 539.797 396.731C480.039 428.738 439.934 409.846 439.934 409.846Z" fill="white"/>
</mask>
<g mask="url(#mask7_716_6614)">
<path d="M605.031 215.027C587.545 199.702 577.857 177.326 569.309 157.587L571.271 156.734C579.727 176.27 589.317 198.409 606.438 213.414L605.031 215.027Z" fill="#E7473C"/>
</g>
<mask id="mask8_716_6614" style="mask-type:luminance" maskUnits="userSpaceOnUse" x="439" y="116" width="285" height="300">
<path d="M439.934 409.846C439.934 409.846 559.153 363.715 555.668 286.549C552.182 209.384 589.413 90.7796 682.44 120.785C775.467 150.786 682.44 311.589 682.44 311.589C682.44 311.589 718.468 203.635 700.454 162.21C682.44 120.785 604.067 135.081 599.813 205.655C595.56 276.228 599.554 364.725 539.797 396.731C480.039 428.738 439.934 409.846 439.934 409.846Z" fill="white"/>
</mask>
<g mask="url(#mask8_716_6614)">
<path d="M603.645 268.987C581.521 251.128 562.914 228.34 549.844 203.083L551.741 202.101C564.682 227.099 583.094 249.65 604.987 267.324L603.645 268.987Z" fill="#E7473C"/>
</g>
<mask id="mask9_716_6614" style="mask-type:luminance" maskUnits="userSpaceOnUse" x="439" y="116" width="285" height="300">
<path d="M439.934 409.846C439.934 409.846 559.153 363.715 555.668 286.549C552.182 209.384 589.413 90.7796 682.44 120.785C775.467 150.786 682.44 311.589 682.44 311.589C682.44 311.589 718.468 203.635 700.454 162.21C682.44 120.785 604.067 135.081 599.813 205.655C595.56 276.228 599.554 364.725 539.797 396.731C480.039 428.738 439.934 409.846 439.934 409.846Z" fill="white"/>
</mask>
<g mask="url(#mask9_716_6614)">
<path d="M600.091 300.707C591.394 296.602 583.294 290.575 576.671 283.274C570.047 275.973 564.831 267.324 561.582 258.267L563.595 257.544C566.747 266.342 571.816 274.741 578.254 281.833C584.692 288.926 592.556 294.786 601.002 298.77L600.091 300.707Z" fill="#E7473C"/>
</g>
<path d="M575.813 348.061C571.48 412.631 500.985 426.848 447.624 423.262C394.258 419.677 320.42 399.103 324.753 334.534C329.085 269.965 409.948 185.841 463.314 189.431C516.675 193.017 580.145 283.487 575.813 348.061Z" fill="#70849F"/>
<mask id="mask10_716_6614" style="mask-type:luminance" maskUnits="userSpaceOnUse" x="294" y="223" width="236" height="252">
<path d="M460.637 224.011C524.716 232.664 534.166 304.02 527.016 357.072C519.866 410.128 494.409 482.492 430.33 473.839C366.252 465.186 287.807 378.791 294.961 325.735C302.111 272.684 396.553 215.358 460.637 224.011Z" fill="white"/>
</mask>
<g mask="url(#mask10_716_6614)">
<path d="M493.237 350.441C496.358 303.915 480.422 264.956 457.643 263.425C434.863 261.894 413.867 298.37 410.745 344.897C407.624 391.423 423.56 430.382 446.339 431.913C469.119 433.444 490.115 396.968 493.237 350.441Z" fill="#B0C2D6"/>
</g>
<path d="M506.984 171.934C506.984 172.027 506.993 172.115 506.993 172.208C506.993 182.487 498.666 190.821 488.396 190.821C481.55 190.821 475.57 187.115 472.344 181.603C468.933 185.716 463.787 188.338 458.029 188.338C458.029 194.708 452.868 199.874 446.504 199.874C440.14 199.874 434.979 194.708 434.979 188.338C434.979 187.852 435.012 187.375 435.072 186.907C432.869 187.829 430.448 188.338 427.912 188.338C421.075 188.338 415.109 184.646 411.874 179.147C408.574 182.149 404.186 183.984 399.373 183.984C394.531 183.984 390.125 182.131 386.82 179.101C349.96 201.643 325.359 242.29 325.359 288.69C325.359 359.588 382.78 417.06 453.613 417.06C524.447 417.06 581.867 359.588 581.867 288.69C581.867 236.856 551.171 192.202 506.984 171.934ZM453.613 347.724C421.038 347.724 394.633 321.294 394.633 288.69C394.633 256.086 421.038 229.657 453.613 229.657C486.188 229.657 512.593 256.086 512.593 288.69C512.593 321.294 486.188 347.724 453.613 347.724Z" fill="#512012"/>
<mask id="mask11_716_6614" style="mask-type:luminance" maskUnits="userSpaceOnUse" x="325" y="171" width="257" height="247">
<path d="M506.984 171.935C506.984 172.028 506.993 172.116 506.993 172.208C506.993 182.488 498.666 190.822 488.396 190.822C481.55 190.822 475.57 187.116 472.344 181.603C468.933 185.717 463.787 188.339 458.029 188.339C458.029 194.709 452.868 199.874 446.504 199.874C440.14 199.874 434.979 194.709 434.979 188.339C434.979 187.853 435.012 187.376 435.072 186.908C432.869 187.83 430.448 188.339 427.912 188.339C421.075 188.339 415.109 184.647 411.874 179.148C408.574 182.15 404.186 183.984 399.373 183.984C394.531 183.984 390.125 182.131 386.82 179.102C349.96 201.644 325.359 242.291 325.359 288.691C325.359 359.588 382.78 417.061 453.613 417.061C524.447 417.061 581.867 359.588 581.867 288.691C581.867 236.857 551.171 192.203 506.984 171.935ZM453.613 347.724C421.038 347.724 394.633 321.295 394.633 288.691C394.633 256.087 421.038 229.657 453.613 229.657C486.188 229.657 512.593 256.087 512.593 288.691C512.593 321.295 486.188 347.724 453.613 347.724Z" fill="white"/>
</mask>
<g mask="url(#mask11_716_6614)">
<path d="M439.892 215.894C435.342 218.674 432.746 223.76 428.733 227.277C423.285 232.048 415.796 233.494 408.854 235.537C401.906 237.58 394.556 240.971 391.636 247.605C389.118 253.326 390.567 259.96 389.553 266.13C388.322 273.649 383.499 280.13 381.694 287.533C380.296 293.264 380.81 299.444 383.124 304.864C385.573 310.59 389.868 315.306 393.048 320.661C396.426 326.35 398.514 332.715 401.698 338.515C404.882 344.315 409.543 349.772 415.884 351.653C420.115 352.904 424.627 352.441 429.034 352.431C449.153 352.394 469.097 362.076 488.796 357.981C492.017 357.314 495.234 356.239 497.821 354.21C503.996 349.365 505.106 340.544 509.277 333.892C512.271 329.12 516.858 325.479 519.621 320.568C524.629 311.674 522.732 300.708 521.824 290.54C521.135 282.803 521.116 275.006 521.76 267.265C522.546 257.806 523.875 246.91 517.27 240.09C510.637 233.243 499.404 234.207 490.939 229.834C485.792 227.175 481.849 222.616 476.818 219.739C472.184 217.094 466.894 216.019 461.692 215.135C457.003 214.338 452.352 213.221 447.552 213.587C444.872 213.786 442.211 214.481 439.892 215.894Z" fill="#C37628"/>
<mask id="mask12_716_6614" style="mask-type:luminance" maskUnits="userSpaceOnUse" x="380" y="213" width="143" height="146">
<path d="M439.88 215.894C435.33 218.674 432.734 223.76 428.721 227.276C423.273 232.048 415.785 233.493 408.842 235.536C401.895 237.579 394.545 240.97 391.624 247.604C389.106 253.326 390.555 259.959 389.541 266.13C388.31 273.649 383.487 280.13 381.682 287.533C380.284 293.263 380.798 299.443 383.112 304.863C385.561 310.589 389.856 315.305 393.036 320.661C396.415 326.349 398.502 332.715 401.686 338.515C404.871 344.315 409.532 349.772 415.872 351.653C420.103 352.904 424.616 352.44 429.022 352.431C449.142 352.394 469.086 362.076 488.784 357.981C492.006 357.314 495.222 356.239 497.81 354.21C503.984 349.364 505.095 340.544 509.265 333.891C512.26 329.12 516.846 325.479 519.61 320.568C524.617 311.673 522.72 300.708 521.813 290.539C521.123 282.803 521.105 275.006 521.748 267.265C522.535 257.805 523.863 246.909 517.258 240.09C510.626 233.243 499.393 234.207 490.927 229.834C485.78 227.174 481.837 222.616 476.806 219.739C472.173 217.094 466.882 216.019 461.68 215.134C456.992 214.337 452.34 213.221 447.54 213.587C444.86 213.786 442.199 214.481 439.88 215.894Z" fill="white"/>
</mask>
<g mask="url(#mask12_716_6614)">
<path d="M441.578 225.001C437.343 225.997 433.465 228.115 429.651 230.209C420.255 235.379 410.767 240.65 402.982 248.026C398.71 252.07 394.882 256.971 393.804 262.757C393.091 266.579 393.632 270.531 393.211 274.399C392.503 280.922 389.124 286.875 388.004 293.342C386.792 300.342 388.305 307.596 391.087 314.133C393.868 320.67 397.863 326.604 401.834 332.487C403.199 334.507 404.593 336.564 406.495 338.084C412.012 342.503 420.019 341.331 426.777 343.397C431.859 344.954 436.2 348.354 441.227 350.087C446.221 351.81 451.622 351.796 456.908 351.768C466.762 351.713 476.833 351.62 486.127 348.345C492.561 346.08 498.726 342.007 501.646 335.837C502.706 333.604 503.299 331.181 504.09 328.842C507.427 318.965 514.268 310.52 517.244 300.527C519.743 292.133 519.308 282.895 516.036 274.774C514.171 270.146 511.431 265.898 509.732 261.21C507.048 253.798 506.978 245.348 502.641 238.765C499.364 233.79 493.977 230.51 488.312 228.666C482.475 226.766 476.384 226.637 470.441 225.423C469.09 225.15 467.553 225.474 466.178 225.469C464.582 225.465 462.985 225.372 461.393 225.242C458.245 224.988 455.107 224.58 451.951 224.385C448.479 224.163 444.971 224.205 441.578 225.001Z" fill="#E5A55B"/>
</g>
</g>
<mask id="mask13_716_6614" style="mask-type:luminance" maskUnits="userSpaceOnUse" x="325" y="171" width="257" height="247">
<path d="M506.984 171.935C506.984 172.028 506.993 172.116 506.993 172.208C506.993 182.488 498.666 190.822 488.396 190.822C481.55 190.822 475.57 187.116 472.344 181.603C468.933 185.717 463.787 188.339 458.029 188.339C458.029 194.709 452.868 199.874 446.504 199.874C440.14 199.874 434.979 194.709 434.979 188.339C434.979 187.853 435.012 187.376 435.072 186.908C432.869 187.83 430.448 188.339 427.912 188.339C421.075 188.339 415.109 184.647 411.874 179.148C408.574 182.15 404.186 183.984 399.373 183.984C394.531 183.984 390.125 182.131 386.82 179.102C349.96 201.644 325.359 242.291 325.359 288.691C325.359 359.588 382.78 417.061 453.613 417.061C524.447 417.061 581.867 359.588 581.867 288.691C581.867 236.857 551.171 192.203 506.984 171.935ZM453.613 347.724C421.038 347.724 394.633 321.295 394.633 288.691C394.633 256.087 421.038 229.657 453.613 229.657C486.188 229.657 512.593 256.087 512.593 288.691C512.593 321.295 486.188 347.724 453.613 347.724Z" fill="white"/>
</mask>
<g mask="url(#mask13_716_6614)">
<path d="M396.949 193.332C397.667 201.787 390.752 208.944 383.55 213.415C376.348 217.885 368.063 221.198 362.815 227.859C356.057 236.434 355.983 248.414 357.219 259.264C358.459 270.113 360.667 281.324 357.441 291.757C353.456 304.64 341.515 315.138 341.941 328.619C342.306 340.149 351.646 349.127 360.394 356.641C369.142 364.156 378.644 372.823 379.537 384.321C379.843 388.231 379.084 392.146 378.112 395.944C377.612 397.89 377.024 399.887 375.756 401.443C373.09 404.719 368.017 405.136 364.125 403.5C360.232 401.865 357.265 398.627 354.535 395.402C344.741 383.844 336.187 371.104 330.383 357.109C325.167 344.532 322.228 331.106 320.488 317.602C317.16 291.826 318.192 265.189 326.278 240.488C334.364 215.787 349.855 193.115 371.563 178.851C375.312 176.386 380.264 174.144 384.55 176.59C388.373 178.767 392.071 182.376 394.408 186.092C395.783 188.283 396.727 190.743 396.949 193.332Z" fill="#3B150A"/>
</g>
<mask id="mask14_716_6614" style="mask-type:luminance" maskUnits="userSpaceOnUse" x="325" y="171" width="257" height="247">
<path d="M506.984 171.935C506.984 172.028 506.993 172.116 506.993 172.208C506.993 182.488 498.666 190.822 488.396 190.822C481.55 190.822 475.57 187.116 472.344 181.603C468.933 185.717 463.787 188.339 458.029 188.339C458.029 194.709 452.868 199.874 446.504 199.874C440.14 199.874 434.979 194.709 434.979 188.339C434.979 187.853 435.012 187.376 435.072 186.908C432.869 187.83 430.448 188.339 427.912 188.339C421.075 188.339 415.109 184.647 411.874 179.148C408.574 182.15 404.186 183.984 399.373 183.984C394.531 183.984 390.125 182.131 386.82 179.102C349.96 201.644 325.359 242.291 325.359 288.691C325.359 359.588 382.78 417.061 453.613 417.061C524.447 417.061 581.867 359.588 581.867 288.691C581.867 236.857 551.171 192.203 506.984 171.935ZM453.613 347.724C421.038 347.724 394.633 321.295 394.633 288.691C394.633 256.087 421.038 229.657 453.613 229.657C486.188 229.657 512.593 256.087 512.593 288.691C512.593 321.295 486.188 347.724 453.613 347.724Z" fill="white"/>
</mask>
<g mask="url(#mask14_716_6614)">
<path d="M421.226 392.707C432.5 393.161 443.433 396.547 454.587 398.224C465.746 399.901 477.873 399.66 487.361 393.55C497.798 386.823 503.038 374.385 512.174 365.972C520.482 358.324 531.489 354.451 541.12 348.563C550.752 342.675 559.741 333.178 559.296 321.888C559.106 317.066 557.2 312.493 556.288 307.759C554.654 299.286 556.348 290.21 560.93 282.9C564.661 276.947 570.395 271.633 570.826 264.62C571.326 256.466 564.536 250.004 558.958 244.042C551.567 236.134 545.457 227.031 540.94 217.186C538.936 212.813 537.149 208.162 533.687 204.827C527.369 198.735 517.608 198.762 508.897 197.757C500.187 196.752 490.064 192.722 488.625 184.063C487.681 178.37 490.976 172.926 494.133 168.099C496.72 164.143 499.733 159.872 504.324 158.755C507.245 158.046 510.304 158.769 513.202 159.575C543.277 167.946 571.83 187.181 584.109 215.908C590.288 230.362 592.042 246.279 593.098 261.961C594.116 277.044 594.542 292.249 592.565 307.235C587.414 346.311 565.16 382.821 532.803 405.284C500.446 427.748 458.484 435.813 420.115 426.951C408.669 424.306 397.13 420.141 387.609 413.09C384.064 410.464 381.301 405.762 385.295 402.134C389.317 398.484 396.181 396.496 401.305 395.065C407.771 393.254 414.519 392.438 421.226 392.707Z" fill="#3B150A"/>
</g>
<path d="M355.267 274.833C355.267 276.547 353.879 277.932 352.171 277.932C350.458 277.932 349.074 276.543 349.074 274.833C349.074 273.124 350.463 271.734 352.171 271.734C353.879 271.734 355.267 273.119 355.267 274.833Z" fill="#E7473C"/>
<path d="M393.707 219.705C395.137 219.705 396.512 218.445 396.447 216.962C396.382 215.475 395.244 214.22 393.707 214.22C392.277 214.22 390.902 215.48 390.967 216.962C391.036 218.45 392.17 219.705 393.707 219.705Z" fill="#E7473C"/>
<path d="M377.316 261.556C378.747 261.556 380.121 260.296 380.056 258.814C379.992 257.327 378.853 256.071 377.316 256.071C375.886 256.071 374.512 257.331 374.576 258.814C374.646 260.301 375.784 261.556 377.316 261.556Z" fill="#E7473C"/>
<path d="M358.633 235.688C360.063 235.688 361.438 234.428 361.373 232.946C361.308 231.459 360.17 230.203 358.633 230.203C357.203 230.203 355.828 231.463 355.893 232.946C355.962 234.433 357.101 235.688 358.633 235.688Z" fill="#E7473C"/>
<path d="M519.688 222.735C521.118 222.735 522.492 221.475 522.428 219.992C522.363 218.505 521.224 217.25 519.688 217.25C518.257 217.25 516.883 218.51 516.948 219.992C517.012 221.479 518.151 222.735 519.688 222.735Z" fill="#E7473C"/>
<path d="M519.063 195.115C520.493 195.115 521.867 193.855 521.803 192.373C521.738 190.886 520.599 189.63 519.063 189.63C517.632 189.63 516.258 190.89 516.323 192.373C516.392 193.855 517.531 195.115 519.063 195.115Z" fill="#E7473C"/>
<path d="M482.676 210.805C484.106 210.805 485.481 209.545 485.416 208.063C485.351 206.576 484.212 205.32 482.676 205.32C481.246 205.32 479.871 206.58 479.936 208.063C480.005 209.55 481.139 210.805 482.676 210.805Z" fill="#E7473C"/>
<path d="M565.465 313.752C566.895 313.752 568.27 312.492 568.205 311.01C568.14 309.523 567.002 308.267 565.465 308.267C564.035 308.267 562.66 309.527 562.725 311.01C562.794 312.497 563.933 313.752 565.465 313.752Z" fill="#E7473C"/>
<path d="M564.852 254.746C566.282 254.746 567.656 253.486 567.592 252.003C567.527 250.516 566.388 249.261 564.852 249.261C563.421 249.261 562.047 250.521 562.112 252.003C562.181 253.49 563.315 254.746 564.852 254.746Z" fill="#E7473C"/>
<path d="M532.852 292.41C534.282 292.41 535.656 291.15 535.592 289.668C535.527 288.181 534.388 286.925 532.852 286.925C531.421 286.925 530.047 288.185 530.112 289.668C530.181 291.155 531.32 292.41 532.852 292.41Z" fill="#E7473C"/>
<path d="M534.113 373.387C535.544 373.387 536.918 372.127 536.853 370.645C536.789 369.158 535.65 367.902 534.113 367.902C532.683 367.902 531.308 369.162 531.373 370.645C531.443 372.132 532.581 373.387 534.113 373.387Z" fill="#E7473C"/>
<path d="M535.359 337.605C536.79 337.605 538.164 336.345 538.099 334.863C538.035 333.376 536.896 332.12 535.359 332.12C533.929 332.12 532.555 333.38 532.619 334.863C532.689 336.35 533.827 337.605 535.359 337.605Z" fill="#E7473C"/>
<path d="M559.195 347.024C560.626 347.024 562 345.764 561.935 344.281C561.871 342.794 560.732 341.539 559.195 341.539C557.765 341.539 556.391 342.799 556.455 344.281C556.525 345.768 557.663 347.024 559.195 347.024Z" fill="#E7473C"/>
<path d="M473.91 408.54C475.34 408.54 476.715 407.28 476.65 405.798C476.585 404.311 475.447 403.055 473.91 403.055C472.48 403.055 471.105 404.316 471.17 405.798C471.24 407.285 472.374 408.54 473.91 408.54Z" fill="#E7473C"/>
<path d="M469.512 378.409C470.942 378.409 472.317 377.149 472.252 375.667C472.187 374.18 471.048 372.924 469.512 372.924C468.082 372.924 466.707 374.184 466.772 375.667C466.837 377.154 467.975 378.409 469.512 378.409Z" fill="#E7473C"/>
<path d="M411.816 399.127C413.247 399.127 414.621 397.867 414.556 396.384C414.492 394.897 413.353 393.642 411.816 393.642C410.386 393.642 409.012 394.902 409.076 396.384C409.146 397.871 410.284 399.127 411.816 399.127Z" fill="#E7473C"/>
<path d="M374.816 360.208C376.247 360.208 377.621 358.948 377.556 357.465C377.492 355.978 376.353 354.723 374.816 354.723C373.386 354.723 372.012 355.983 372.076 357.465C372.146 358.948 373.28 360.208 374.816 360.208Z" fill="#E7473C"/>
<path d="M434.398 367.11C435.829 367.11 437.203 365.85 437.139 364.368C437.074 362.881 435.935 361.625 434.398 361.625C432.968 361.625 431.594 362.886 431.658 364.368C431.723 365.855 432.862 367.11 434.398 367.11Z" fill="#E7473C"/>
<path d="M335.297 325.051C336.727 325.051 338.102 323.791 338.037 322.308C337.972 320.821 336.834 319.566 335.297 319.566C333.867 319.566 332.492 320.826 332.557 322.308C332.626 323.795 333.765 325.051 335.297 325.051Z" fill="#E7473C"/>
<path d="M373.555 318.773C374.985 318.773 376.36 317.513 376.295 316.031C376.23 314.544 375.091 313.288 373.555 313.288C372.125 313.288 370.75 314.548 370.815 316.031C370.884 317.518 372.018 318.773 373.555 318.773Z" fill="#E7473C"/>
<path d="M401.145 195.115C402.575 195.115 403.949 193.855 403.885 192.373C403.82 190.886 402.681 189.63 401.145 189.63C399.714 189.63 398.34 190.89 398.405 192.373C398.474 193.855 399.608 195.115 401.145 195.115Z" fill="#E7473C"/>
<path d="M396.799 382.463C395.605 382.463 394.633 381.495 394.633 380.295V359.629C394.633 358.434 395.6 357.461 396.799 357.461C397.993 357.461 398.965 358.429 398.965 359.629V380.295C398.965 381.495 397.993 382.463 396.799 382.463Z" fill="#88D1E2"/>
<path d="M548.38 290.482C547.783 289.445 548.135 288.12 549.172 287.522L567.052 277.191C568.088 276.594 569.412 276.946 570.009 277.984C570.606 279.021 570.254 280.346 569.218 280.944L551.338 291.275C550.301 291.877 548.978 291.52 548.38 290.482Z" fill="#88D1E2"/>
<path d="M541.242 267.875C541.242 266.68 542.21 265.707 543.408 265.707H564.056C565.25 265.707 566.222 266.675 566.222 267.875C566.222 269.07 565.255 270.043 564.056 270.043H543.408C542.21 270.038 541.242 269.07 541.242 267.875Z" fill="#F7941D"/>
<path d="M553.396 321.012C554.484 321.512 554.956 322.8 554.456 323.889L545.805 342.655C545.306 343.744 544.019 344.217 542.931 343.716C541.843 343.216 541.371 341.928 541.871 340.839L550.522 322.073C551.022 320.984 552.308 320.507 553.396 321.012Z" fill="#F7941D"/>
<path d="M409.527 376.932C409.406 375.742 410.272 374.676 411.462 374.556L432.002 372.471C433.192 372.35 434.257 373.217 434.377 374.407C434.497 375.598 433.632 376.663 432.442 376.784L411.901 378.869C410.712 378.989 409.647 378.123 409.527 376.932Z" fill="#F7941D"/>
<path d="M357.682 284.423C358.872 284.566 359.719 285.641 359.575 286.832L357.136 307.354C356.993 308.545 355.919 309.393 354.729 309.249C353.54 309.105 352.693 308.031 352.836 306.84L355.275 286.318C355.414 285.132 356.493 284.284 357.682 284.423Z" fill="#F7941D"/>
<path d="M429.556 201.596C429.607 202.791 428.677 203.801 427.483 203.852L406.854 204.719C405.66 204.77 404.651 203.838 404.6 202.643C404.549 201.448 405.479 200.438 406.673 200.387L427.302 199.521C428.496 199.47 429.505 200.401 429.556 201.596Z" fill="#F7941D"/>
<path d="M534.004 224.422C534.504 223.333 535.791 222.861 536.878 223.361L555.628 232.019C556.716 232.52 557.188 233.807 556.688 234.896C556.188 235.985 554.901 236.457 553.814 235.957L535.064 227.299C533.976 226.794 533.504 225.506 534.004 224.422Z" fill="#BD99EC"/>
<path d="M522.17 351.957C523.36 352.101 524.207 353.175 524.063 354.366L521.624 374.888C521.481 376.079 520.407 376.927 519.217 376.783C518.028 376.64 517.181 375.565 517.324 374.374L519.764 353.852C519.907 352.666 520.986 351.813 522.17 351.957Z" fill="#BD99EC"/>
<path d="M462.405 388.147C462.142 389.315 460.985 390.047 459.818 389.783L439.68 385.229C438.514 384.965 437.782 383.807 438.046 382.639C438.31 381.472 439.467 380.74 440.633 381.004L460.772 385.558C461.933 385.822 462.669 386.98 462.405 388.147Z" fill="#BD99EC"/>
<path d="M383.05 325.065C382.786 326.232 381.629 326.964 380.463 326.7L360.324 322.146C359.158 321.882 358.427 320.724 358.691 319.557C358.954 318.389 360.111 317.657 361.278 317.921L381.416 322.475C382.583 322.739 383.314 323.897 383.05 325.065Z" fill="#BD99EC"/>
<path d="M388.227 208.087C389.074 208.935 389.074 210.306 388.227 211.154L373.629 225.765C372.782 226.613 371.412 226.613 370.565 225.765C369.718 224.917 369.718 223.546 370.565 222.698L385.163 208.087C386.01 207.239 387.38 207.239 388.227 208.087Z" fill="#BD99EC"/>
<path d="M435.372 217.597C436.219 218.445 436.219 219.816 435.372 220.664L420.773 235.276C419.926 236.123 418.556 236.123 417.709 235.276C416.862 234.428 416.862 233.056 417.709 232.209L432.308 217.597C433.155 216.754 434.529 216.754 435.372 217.597Z" fill="#BD99EC"/>
<path d="M489.191 349.099C489.626 347.983 490.885 347.436 491.995 347.872L511.213 355.423C512.328 355.858 512.874 357.118 512.439 358.23C512.004 359.347 510.745 359.893 509.63 359.458L490.412 351.907C489.302 351.476 488.751 350.216 489.191 349.099Z" fill="#88D1E2"/>
<path d="M340.548 247.436C340.983 246.32 342.242 245.773 343.357 246.213L362.575 253.764C363.69 254.2 364.236 255.46 363.797 256.576C363.362 257.693 362.103 258.239 360.987 257.799L341.77 250.248C340.659 249.808 340.113 248.552 340.548 247.436Z" fill="#88D1E2"/>
<path d="M341.966 312.464C343.16 312.413 344.169 313.344 344.22 314.54L345.086 335.187C345.137 336.382 344.206 337.392 343.012 337.443C341.818 337.494 340.809 336.563 340.758 335.368L339.893 314.72C339.842 313.525 340.772 312.515 341.966 312.464Z" fill="#88D1E2"/>
<path d="M492.288 197.552C492.723 196.436 493.982 195.889 495.093 196.324L514.31 203.876C515.426 204.311 515.972 205.571 515.537 206.688C515.102 207.804 513.843 208.351 512.727 207.915L493.51 200.364C492.399 199.924 491.848 198.669 492.288 197.552Z" fill="#88D1E2"/>
<path d="M560.186 215.679C559.455 214.85 558.317 214.512 557.243 214.776C550.703 216.393 529.801 226.306 530.592 233.51C531.513 241.872 550.721 234.307 550.721 234.307C550.721 234.307 535.887 243.753 544.663 248.937C553.438 254.121 562.704 245.245 562.704 245.245C562.704 245.245 550.393 260.588 563.496 256.974C576.4 253.416 573.141 241.033 573.141 241.033C573.141 241.033 566.703 223.064 560.186 215.679Z" fill="#E7473C"/>
<mask id="mask15_716_6614" style="mask-type:luminance" maskUnits="userSpaceOnUse" x="530" y="214" width="44" height="44">
<path d="M560.171 215.679C559.44 214.85 558.301 214.512 557.227 214.776C550.687 216.393 529.785 226.307 530.577 233.51C531.498 241.872 550.706 234.307 550.706 234.307C550.706 234.307 535.872 243.753 544.647 248.937C553.423 254.121 562.689 245.245 562.689 245.245C562.689 245.245 550.377 260.588 563.48 256.975C576.384 253.417 573.126 241.034 573.126 241.034C573.126 241.034 566.688 223.064 560.171 215.679Z" fill="white"/>
</mask>
<g mask="url(#mask15_716_6614)">
<path d="M542.077 221.508C542.077 221.508 533.334 228.081 534.195 231.727C535.06 235.378 552.033 233.937 552.033 233.937C552.033 233.937 541.739 243.198 544.743 246.705C547.751 250.216 562.696 245.245 562.696 245.245C562.696 245.245 557.212 255.048 560.378 255.483C563.544 255.924 570.028 252.463 573.499 247.951C573.499 247.951 571.315 260.241 561.336 259.375C551.361 258.509 544.743 251.022 544.743 251.022C544.743 251.022 533.741 244.013 530.561 239.116C527.382 234.22 528.627 230.477 528.918 229.995C529.21 229.518 542.077 221.508 542.077 221.508Z" fill="#F96E8B"/>
</g>
<path d="M345.888 215.679C346.62 214.85 347.758 214.512 348.832 214.776C355.372 216.393 376.274 226.306 375.482 233.51C374.561 241.872 355.353 234.307 355.353 234.307C355.353 234.307 370.188 243.753 361.412 248.937C352.637 254.121 343.37 245.245 343.37 245.245C343.37 245.245 355.682 260.588 342.579 256.974C329.675 253.416 332.933 241.033 332.933 241.033C332.933 241.033 339.371 223.064 345.888 215.679Z" fill="#E7473C"/>
<mask id="mask16_716_6614" style="mask-type:luminance" maskUnits="userSpaceOnUse" x="332" y="214" width="44" height="44">
<path d="M345.888 215.679C346.62 214.85 347.758 214.512 348.832 214.776C355.372 216.393 376.274 226.307 375.482 233.51C374.561 241.872 355.353 234.307 355.353 234.307C355.353 234.307 370.188 243.753 361.412 248.937C352.637 254.121 343.37 245.245 343.37 245.245C343.37 245.245 355.682 260.588 342.579 256.975C329.675 253.417 332.933 241.034 332.933 241.034C332.933 241.034 339.371 223.064 345.888 215.679Z" fill="white"/>
</mask>
<g mask="url(#mask16_716_6614)">
<path d="M363.981 221.508C363.981 221.508 372.724 228.081 371.863 231.727C370.998 235.378 354.025 233.937 354.025 233.937C354.025 233.937 364.319 243.198 361.315 246.705C358.306 250.216 343.361 245.245 343.361 245.245C343.361 245.245 348.846 255.048 345.68 255.483C342.514 255.924 336.03 252.463 332.558 247.951C332.558 247.951 334.743 260.241 344.722 259.375C354.696 258.509 361.315 251.022 361.315 251.022C361.315 251.022 372.317 244.013 375.496 239.116C378.676 234.22 377.431 230.477 377.14 229.995C376.853 229.518 363.981 221.508 363.981 221.508Z" fill="#F96E8B"/>
</g>
<path d="M414.365 423.337C414.365 418.047 410.885 413.386 405.817 411.89C384.873 405.696 331.706 392.317 317.191 405.803C299.104 422.614 317.191 423.337 317.191 423.337H414.365Z" fill="#E7473C"/>
<path d="M492.836 423.337C492.836 418.047 496.317 413.386 501.385 411.89C522.328 405.696 575.495 392.317 590.01 405.803C608.098 422.614 590.01 423.337 590.01 423.337H492.836Z" fill="#E7473C"/>
<path d="M317.191 423.337C317.191 423.337 324.435 406.461 342.49 409.018C360.546 411.575 414.365 423.337 414.365 423.337H317.191Z" fill="#F96E8B"/>
<path d="M589.83 423.337C589.83 423.337 582.587 406.461 564.531 409.018C546.476 411.575 492.656 423.337 492.656 423.337H589.83Z" fill="#F96E8B"/>
<path d="M567.691 101.219C589.986 78.9032 589.986 42.7224 567.691 20.4067C545.395 -1.90891 509.247 -1.90892 486.952 20.4067C464.656 42.7224 464.656 78.9031 486.952 101.219C509.247 123.534 545.395 123.534 567.691 101.219Z" fill="#70849F"/>
<path d="M521.046 114.758C547.342 114.758 568.659 93.4215 568.659 67.102C568.659 40.7825 547.342 19.4463 521.046 19.4463C494.751 19.4463 473.434 40.7825 473.434 67.102C473.434 93.4215 494.751 114.758 521.046 114.758Z" fill="#E7473C"/>
<mask id="mask17_716_6614" style="mask-type:luminance" maskUnits="userSpaceOnUse" x="498" y="20" width="96" height="96">
<path d="M579.337 101.829C597.93 83.2184 597.93 53.0448 579.337 34.4342C560.743 15.8237 530.597 15.8237 512.003 34.4342C493.409 53.0448 493.409 83.2184 512.003 101.829C530.597 120.439 560.743 120.439 579.337 101.829Z" fill="white"/>
</mask>
<g mask="url(#mask17_716_6614)">
<path opacity="0.14" d="M562.123 65.4257C577.327 50.2073 577.327 25.5334 562.123 10.315C546.918 -4.90343 522.266 -4.90343 507.062 10.315C491.857 25.5334 491.857 50.2073 507.062 65.4257C522.266 80.6442 546.918 80.6442 562.123 65.4257Z" fill="white"/>
</g>
<path d="M409.656 101.218C431.951 78.9024 431.951 42.7216 409.655 20.406C387.36 -1.90965 351.212 -1.90966 328.916 20.406C306.621 42.7216 306.621 78.9024 328.916 101.218C351.212 123.534 387.36 123.534 409.656 101.218Z" fill="#70849F"/>
<path d="M375.578 114.758C401.873 114.758 423.19 93.4218 423.19 67.1022C423.19 40.7827 401.873 19.4465 375.578 19.4465C349.282 19.4465 327.965 40.7827 327.965 67.1022C327.965 93.4218 349.282 114.758 375.578 114.758Z" fill="#E7473C"/>
<mask id="mask18_716_6614" style="mask-type:luminance" maskUnits="userSpaceOnUse" x="367" y="6" width="96" height="96">
<path d="M461.996 61.8678C466.208 35.8878 448.581 11.4088 422.625 7.19243C396.668 2.97604 372.211 20.6189 367.999 46.5989C363.786 72.5789 381.413 97.058 407.37 101.274C433.326 105.491 457.783 87.8478 461.996 61.8678Z" fill="white"/>
</mask>
<g mask="url(#mask18_716_6614)">
<path opacity="0.14" d="M425.893 43.6783C429.313 22.5877 415.004 2.71564 393.932 -0.707231C372.861 -4.1301 353.006 10.1924 349.587 31.283C346.167 52.3736 360.476 72.2457 381.548 75.6686C402.62 79.0915 422.474 64.7689 425.893 43.6783Z" fill="white"/>
</g>
<path d="M448.31 183.742H430.824V208.35C430.824 213.108 435.467 216.962 441.197 216.962H448.306H455.42C461.15 216.962 465.792 213.108 465.792 208.35V183.742H448.31Z" fill="white"/>
<mask id="mask19_716_6614" style="mask-type:luminance" maskUnits="userSpaceOnUse" x="430" y="183" width="36" height="34">
<path d="M448.31 183.741H430.824V208.349C430.824 213.107 435.467 216.961 441.197 216.961H448.306H455.42C461.15 216.961 465.792 213.107 465.792 208.349V183.741H448.31Z" fill="white"/>
</mask>
<g mask="url(#mask19_716_6614)">
<path opacity="0.36" d="M447.137 185.845L448.965 215.295C449.011 215.684 449.581 215.66 449.599 215.271L449.719 185.877L447.137 185.845Z" fill="#52667E"/>
</g>
<path d="M498.897 96.2137C496.009 70.8084 474.459 51.0688 448.304 51.0688C422.149 51.0688 400.599 70.8084 397.71 96.2137C378.614 104.08 365.168 122.888 365.168 144.838C365.168 173.87 388.68 197.404 417.687 197.404C429.114 197.404 439.69 193.749 448.308 187.546C456.927 193.749 467.503 197.404 478.93 197.404C507.937 197.404 531.449 173.87 531.449 144.838C531.44 122.884 517.994 104.08 498.897 96.2137Z" fill="#70849F"/>
<mask id="mask20_716_6614" style="mask-type:luminance" maskUnits="userSpaceOnUse" x="365" y="51" width="167" height="147">
<path d="M498.882 96.2147C495.993 70.8094 474.443 51.0698 448.288 51.0698C422.133 51.0698 400.583 70.8094 397.695 96.2147C378.598 104.081 365.152 122.889 365.152 144.839C365.152 173.871 388.665 197.405 417.671 197.405C429.099 197.405 439.675 193.75 448.293 187.547C456.911 193.75 467.487 197.405 478.915 197.405C507.921 197.405 531.433 173.871 531.433 144.839C531.424 122.885 517.978 104.081 498.882 96.2147Z" fill="white"/>
</mask>
<g mask="url(#mask20_716_6614)">
<path d="M365.309 148.947C365.309 148.947 384.109 210.033 448.287 177.905C448.287 177.905 510.155 213.725 531.428 144.838C531.428 144.838 547.595 223.226 450.208 200.351C450.213 200.355 366.239 232.01 365.309 148.947Z" fill="#52667E"/>
</g>
<path d="M415.388 120.934C419.97 116.51 426.2 113.79 433.069 113.79C434.999 113.79 436.882 114.008 438.688 114.416C440.331 111.163 441.289 107.318 441.289 103.186C441.289 91.5629 433.744 82.1401 424.441 82.1401C415.138 82.1401 407.594 91.5629 407.594 103.186C407.589 110.649 410.699 117.195 415.388 120.934Z" fill="white"/>
<mask id="mask21_716_6614" style="mask-type:luminance" maskUnits="userSpaceOnUse" x="407" y="82" width="35" height="39">
<path d="M415.384 120.934C419.966 116.51 426.196 113.791 433.065 113.791C434.995 113.791 436.879 114.008 438.684 114.416C440.327 111.164 441.285 107.319 441.285 103.187C441.285 91.5634 433.74 82.1406 424.437 82.1406C415.134 82.1406 407.59 91.5634 407.59 103.187C407.585 110.65 410.696 117.196 415.384 120.934Z" fill="white"/>
</mask>
<g mask="url(#mask21_716_6614)">
<path d="M426.941 122.301C432.385 122.301 436.799 115.147 436.799 106.323C436.799 97.4983 432.385 90.3447 426.941 90.3447C421.496 90.3447 417.082 97.4983 417.082 106.323C417.082 115.147 421.496 122.301 426.941 122.301Z" fill="#272727"/>
</g>
<path d="M481.237 120.934C476.655 116.51 470.425 113.79 463.556 113.79C461.626 113.79 459.742 114.008 457.937 114.416C456.294 111.163 455.336 107.318 455.336 103.186C455.336 91.5629 462.88 82.1401 472.183 82.1401C481.487 82.1401 489.031 91.5629 489.031 103.186C489.031 110.649 485.921 117.195 481.237 120.934Z" fill="white"/>
<mask id="mask22_716_6614" style="mask-type:luminance" maskUnits="userSpaceOnUse" x="455" y="82" width="35" height="39">
<path d="M481.244 120.934C476.662 116.51 470.432 113.791 463.564 113.791C461.634 113.791 459.75 114.008 457.945 114.416C456.302 111.164 455.344 107.319 455.344 103.187C455.344 91.5634 462.888 82.1406 472.191 82.1406C481.494 82.1406 489.039 91.5634 489.039 103.187C489.039 110.65 485.928 117.196 481.244 120.934Z" fill="white"/>
</mask>
<g mask="url(#mask22_716_6614)">
<path d="M468.945 122.328C474.101 122.328 478.28 115.272 478.28 106.568C478.28 97.8637 474.101 90.8076 468.945 90.8076C463.789 90.8076 459.609 97.8637 459.609 106.568C459.609 115.272 463.789 122.328 468.945 122.328Z" fill="#272727"/>
</g>
<path d="M448.311 187.545C448.015 186.823 447.784 186.1 447.571 185.382C447.358 184.659 447.177 183.941 447.006 183.218C446.677 181.778 446.414 180.332 446.215 178.892C445.817 176.005 445.645 173.119 445.641 170.233C445.641 167.347 445.812 164.461 446.21 161.575C446.404 160.129 446.668 158.689 447.001 157.243C447.173 156.521 447.353 155.803 447.571 155.08C447.784 154.357 448.015 153.639 448.316 152.917C448.617 153.639 448.848 154.357 449.061 155.08C449.279 155.803 449.459 156.525 449.63 157.243C449.959 158.684 450.223 160.129 450.422 161.575C450.82 164.461 450.991 167.347 450.991 170.233C450.986 173.119 450.815 176.005 450.417 178.892C450.223 180.332 449.959 181.778 449.626 183.218C449.454 183.941 449.274 184.659 449.061 185.382C448.839 186.1 448.607 186.823 448.311 187.545Z" fill="#52667E"/>
<path d="M428.445 57.7117C428.445 57.7117 443.011 38.3288 446.441 39.1858C449.87 40.0429 445.242 46.7324 445.242 46.7324C445.242 46.7324 470.518 33.1403 472.189 36.9529C473.859 40.7656 461.525 54.6217 461.011 54.6217C460.497 54.6217 428.445 57.7117 428.445 57.7117Z" fill="#70849F"/>
<path d="M448.311 160.824C459.091 160.824 467.829 155.061 467.829 147.95C467.829 140.84 459.091 135.076 448.311 135.076C437.532 135.076 428.793 140.84 428.793 147.95C428.793 155.061 437.532 160.824 448.311 160.824Z" fill="#F44C51"/>
<mask id="mask23_716_6614" style="mask-type:luminance" maskUnits="userSpaceOnUse" x="428" y="135" width="40" height="26">
<path d="M448.307 160.825C459.087 160.825 467.825 155.061 467.825 147.951C467.825 140.841 459.087 135.077 448.307 135.077C437.528 135.077 428.789 140.841 428.789 147.951C428.789 155.061 437.528 160.825 448.307 160.825Z" fill="white"/>
</mask>
<g mask="url(#mask23_716_6614)">
<path d="M451.071 145.593C457.449 145.593 462.619 143.545 462.619 141.02C462.619 138.495 457.449 136.448 451.071 136.448C444.694 136.448 439.523 138.495 439.523 141.02C439.523 143.545 444.694 145.593 451.071 145.593Z" fill="#E7473C"/>
</g>
<path d="M470.625 144.365C472.143 143.054 473.888 142.02 475.675 141.099L476.346 140.751L477.031 140.436L478.405 139.806C478.868 139.602 479.34 139.431 479.808 139.246C480.275 139.065 480.743 138.875 481.215 138.703C482.168 138.384 483.122 138.064 484.08 137.754L486.991 136.962C487.472 136.818 487.968 136.73 488.458 136.619L489.935 136.308C490.425 136.207 490.916 136.095 491.411 136.003L492.902 135.762C496.868 135.081 500.881 134.812 504.889 134.673C506.893 134.641 508.898 134.692 510.902 134.715C512.901 134.845 514.901 134.974 516.891 135.15C514.887 135.21 512.892 135.224 510.897 135.243L507.907 135.377C506.912 135.433 505.917 135.433 504.922 135.512C503.931 135.595 502.936 135.674 501.946 135.748L500.46 135.859C499.965 135.901 499.474 135.975 498.979 136.03L496.017 136.369C495.771 136.392 495.521 136.429 495.281 136.471L494.545 136.591L493.073 136.827L491.601 137.054C491.11 137.142 490.629 137.249 490.143 137.346L488.685 137.643C488.199 137.745 487.709 137.833 487.232 137.958L484.339 138.666C483.39 138.954 482.437 139.227 481.483 139.505C480.544 139.82 479.604 140.144 478.665 140.468L477.276 141.011L476.582 141.279L475.901 141.58C474.069 142.349 472.282 143.243 470.625 144.365Z" fill="#272727"/>
<path d="M472.109 148.196C473.905 147.301 475.854 146.736 477.812 146.292L478.547 146.12L479.288 145.986L480.774 145.722C481.269 145.643 481.769 145.592 482.269 145.527C482.769 145.467 483.268 145.402 483.768 145.351C484.773 145.277 485.772 145.208 486.781 145.147L489.799 145.106C490.304 145.087 490.804 145.124 491.308 145.143L492.817 145.208C493.317 145.231 493.821 145.245 494.321 145.277L495.821 145.416C499.829 145.74 503.786 146.486 507.702 147.348C509.651 147.816 511.581 148.362 513.515 148.886C515.422 149.511 517.324 150.132 519.208 150.799C517.255 150.359 515.316 149.873 513.381 149.395L510.451 148.779C509.475 148.585 508.507 148.339 507.526 148.163C506.545 147.996 505.564 147.83 504.587 147.649L503.12 147.385C502.629 147.301 502.134 147.251 501.643 147.181L498.69 146.769C498.445 146.732 498.2 146.704 497.95 146.685L497.209 146.616L495.728 146.477L494.247 146.329C493.752 146.292 493.257 146.273 492.761 146.245L491.276 146.166C490.78 146.143 490.285 146.106 489.79 146.111L486.814 146.079C485.823 146.12 484.833 146.148 483.838 146.176C482.847 146.245 481.861 146.329 480.871 146.407L479.395 146.583L478.654 146.671L477.918 146.797C475.946 147.107 473.993 147.524 472.109 148.196Z" fill="#272727"/>
<path d="M471.68 152.128C473.661 151.813 475.688 151.86 477.687 152.022L478.442 152.082L479.192 152.179L480.687 152.369C481.186 152.443 481.677 152.545 482.172 152.633C482.668 152.726 483.163 152.814 483.653 152.916C484.63 153.148 485.611 153.379 486.588 153.625L489.481 154.486C489.967 154.621 490.434 154.806 490.906 154.973L492.322 155.487C492.795 155.663 493.271 155.825 493.739 156.006L495.127 156.59C498.853 158.104 502.408 159.999 505.884 161.996C507.606 163.024 509.281 164.127 510.97 165.206C512.6 166.374 514.229 167.537 515.83 168.736C514.095 167.731 512.396 166.689 510.693 165.646L508.082 164.182C507.208 163.701 506.361 163.177 505.477 162.719C504.588 162.265 503.704 161.811 502.824 161.347L501.501 160.657C501.056 160.43 500.603 160.236 500.154 160.022L497.46 158.744C497.238 158.633 497.011 158.535 496.78 158.443L496.095 158.155L494.72 157.581L493.35 156.993C492.887 156.807 492.42 156.645 491.957 156.469L490.564 155.95C490.096 155.779 489.638 155.594 489.161 155.45L486.333 154.528C485.375 154.269 484.422 154 483.464 153.731C482.501 153.5 481.529 153.282 480.562 153.064L479.099 152.791L478.368 152.657L477.632 152.555C475.665 152.24 473.679 152.05 471.68 152.128Z" fill="#272727"/>
<path d="M427.316 144.365C425.659 143.244 423.872 142.355 422.044 141.572L421.364 141.271L420.669 141.002L419.281 140.46C418.341 140.136 417.406 139.811 416.462 139.496C415.509 139.223 414.555 138.945 413.606 138.658L410.714 137.949C410.232 137.824 409.746 137.736 409.26 137.634L407.802 137.338C407.316 137.24 406.83 137.134 406.344 137.046L404.873 136.819L403.401 136.582L402.665 136.462C402.42 136.42 402.174 136.383 401.929 136.36L398.967 136.022C398.472 135.966 397.981 135.892 397.486 135.85L396 135.739C395.009 135.67 394.014 135.586 393.024 135.503C392.033 135.424 391.034 135.424 390.038 135.369L387.049 135.234C385.054 135.216 383.059 135.207 381.055 135.142C383.045 134.966 385.044 134.836 387.044 134.706C389.043 134.683 391.052 134.632 393.056 134.665C397.064 134.804 401.077 135.072 405.044 135.753L406.53 135.994C407.025 136.087 407.515 136.198 408.006 136.3L409.483 136.61C409.973 136.717 410.468 136.805 410.95 136.953L413.861 137.745C414.819 138.056 415.773 138.371 416.726 138.695C417.198 138.866 417.666 139.056 418.133 139.237C418.601 139.422 419.073 139.594 419.535 139.797L420.91 140.428L421.595 140.743L422.266 141.09C424.048 142.021 425.798 143.054 427.316 144.365Z" fill="#272727"/>
<path d="M425.828 148.196C423.944 147.525 421.991 147.108 420.029 146.807L419.293 146.681L418.552 146.593L417.076 146.417C416.085 146.339 415.095 146.255 414.109 146.186C413.118 146.158 412.123 146.126 411.133 146.088L408.157 146.121C407.661 146.116 407.166 146.153 406.671 146.177L405.185 146.255C404.69 146.283 404.195 146.302 403.699 146.339L402.218 146.487L400.737 146.626L399.997 146.695C399.751 146.714 399.501 146.742 399.256 146.779L396.303 147.191C395.813 147.261 395.317 147.311 394.827 147.395L393.36 147.659C392.383 147.84 391.402 148.006 390.42 148.173C389.439 148.345 388.472 148.59 387.495 148.789L384.566 149.405C382.631 149.887 380.696 150.369 378.738 150.809C380.622 150.142 382.524 149.521 384.431 148.896C386.361 148.372 388.291 147.826 390.245 147.358C394.16 146.496 398.118 145.755 402.126 145.426L403.625 145.287C404.125 145.255 404.63 145.241 405.13 145.218L406.638 145.153C407.143 145.134 407.643 145.097 408.147 145.116L411.165 145.157C412.169 145.218 413.174 145.287 414.178 145.361C414.678 145.412 415.178 145.477 415.678 145.537C416.178 145.602 416.678 145.648 417.173 145.732L418.659 145.996L419.399 146.13L420.135 146.302C422.084 146.737 424.032 147.302 425.828 148.196Z" fill="#272727"/>
<path d="M426.26 152.13C424.261 152.051 422.275 152.241 420.308 152.542L419.572 152.644L418.841 152.778L417.378 153.052C416.411 153.269 415.443 153.492 414.476 153.719C413.523 153.987 412.564 154.256 411.606 154.516L408.778 155.437C408.306 155.581 407.843 155.766 407.376 155.938L405.983 156.457C405.52 156.633 405.053 156.795 404.59 156.98L403.22 157.568L401.845 158.143L401.16 158.43C400.929 158.523 400.702 158.625 400.48 158.731L397.786 160.01C397.337 160.223 396.879 160.422 396.439 160.644L395.115 161.335C394.236 161.798 393.352 162.257 392.463 162.706C391.579 163.165 390.732 163.688 389.857 164.17L387.247 165.634C385.544 166.672 383.84 167.714 382.109 168.724C383.706 167.524 385.34 166.361 386.969 165.194C388.659 164.119 390.334 163.012 392.056 161.983C395.532 159.987 399.086 158.092 402.812 156.577L404.201 155.993C404.668 155.813 405.145 155.646 405.617 155.474L407.033 154.96C407.506 154.793 407.973 154.608 408.459 154.474L411.352 153.612C412.328 153.367 413.31 153.135 414.286 152.903C414.777 152.801 415.277 152.718 415.767 152.621C416.263 152.533 416.753 152.431 417.253 152.357L418.748 152.167L419.498 152.07L420.252 152.009C422.252 151.861 424.279 151.819 426.26 152.13Z" fill="#272727"/>
<path d="M437.968 82.1396C437.968 82.1396 423.597 69.4463 407.578 80.0827C407.578 80.0827 408.383 68.3298 423.592 69.4509C438.806 70.572 437.968 82.1396 437.968 82.1396Z" fill="#272727"/>
<path d="M456.489 82.1396C456.489 82.1396 470.86 69.4463 486.879 80.0827C486.879 80.0827 486.074 68.3298 470.865 69.4509C455.651 70.572 456.489 82.1396 456.489 82.1396Z" fill="#272727"/>
</g>
</svg>
