<?xml version="1.0" encoding="iso-8859-1"?>
<svg xmlns="http://www.w3.org/2000/svg" xmlns:xlink="http://www.w3.org/1999/xlink" version="1.1" viewBox="0 0 463 463" enable-background="new 0 0 463 463" width="512px" height="512px">
  <g>
    <path d="m455.5,384h-8c-7.744,0-29.473-16.694-48.5-31.699v-29.051l19.4-14.55c7.89-5.917 12.6-15.337 12.6-25.2v-4c0-4.142-3.357-7.5-7.5-7.5s-7.5,3.358-7.5,7.5v4c0,5.166-2.467,10.101-6.6,13.2l-10.4,7.8v-49c0-4.142-3.357-7.5-7.5-7.5s-7.5,3.358-7.5,7.5v84.964c-16.115-12.65-32.881-25.382-49-35.136v-62.078l19.4-14.55c7.89-5.918 12.6-15.338 12.6-25.2v-12c0-4.142-3.357-7.5-7.5-7.5s-7.5,3.358-7.5,7.5v12c0,5.166-2.467,10.101-6.6,13.2l-10.4,7.8v-49c0-4.142-3.357-7.5-7.5-7.5s-7.5,3.358-7.5,7.5v81l-10.4-7.8c-4.133-3.1-6.6-8.034-6.6-13.2v-44c0-4.142-3.357-7.5-7.5-7.5s-7.5,3.358-7.5,7.5v44c0,9.862 4.71,19.282 12.6,25.2l19.4,14.55v21.854c-11.596-5.634-22.61-9.097-32.5-9.097-12.901,0-28.817,5.438-48.625,16.6-22.808-18.516-45.241-32.6-63.875-32.6-20.844,0-46.441,17.614-72,39.353v-71.86c0-4.142-3.357-7.5-7.5-7.5s-7.5,3.358-7.5,7.5v49l-10.4-7.8c-4.133-3.1-6.6-8.034-6.6-13.2v-4c0-4.142-3.357-7.5-7.5-7.5s-7.5,3.358-7.5,7.5v4c0,9.862 4.71,19.282 12.6,25.2l19.4,14.55v17.276c-6.682,6.018-13.297,12.137-19.756,18.113-12.367,11.445-24.049,22.255-33.786,30.021-13.189,10.522-17.846,11.34-18.958,11.34h-8c-4.143,0-7.5,3.358-7.5,7.5s3.357,7.5 7.5,7.5h448c4.143,0 7.5-3.358 7.5-7.5s-3.357-7.5-7.5-7.5zm-71.5-24.433v24.433h-49v-60.919c16.42,10.771 33.579,24.294 49,36.486zm-96.5-56.561c9.168,0 20.385,4.288 32.5,10.965v62.125c-1.365-1.012-2.847-2.15-4.458-3.435-9.737-7.767-21.419-18.577-33.786-30.021-9.925-9.184-20.218-18.706-30.559-27.675 14.977-7.932 27.176-11.959 36.303-11.959zm-112.5-16c24.55,0 64.481,36.952 96.567,66.643 13.621,12.604 24.788,22.824 34.155,30.351h-202.722v-52.751c26.101-23.13 53.444-44.243 72-44.243zm-96.567,66.643c3.121-2.888 6.319-5.847 9.567-8.832v39.183h-43.722c9.366-7.527 20.534-17.746 34.155-30.351zm320.567,30.351v-12.652c6.201,4.812 11.795,9.039 16.877,12.652h-16.877z" fill="#FFFFFF"/>
    <path d="m152,135.5c0,21.78 17.72,39.5 39.5,39.5s39.5-17.72 39.5-39.5-17.72-39.5-39.5-39.5-39.5,17.72-39.5,39.5zm64,0c0,13.509-10.99,24.5-24.5,24.5s-24.5-10.991-24.5-24.5 10.99-24.5 24.5-24.5 24.5,10.991 24.5,24.5z" fill="#FFFFFF"/>
    <path d="m191.5,207c32.621,0 61.092-22.034 69.234-53.583 1.035-4.011-1.377-8.102-5.388-9.137-4.01-1.034-8.101,1.378-9.136,5.388-6.433,24.924-28.931,42.332-54.71,42.332-25.798,0-48.3-17.423-54.72-42.369-1.033-4.011-5.118-6.429-9.133-5.394-4.012,1.032-6.427,5.121-5.395,9.133 8.129,31.576 36.603,53.63 69.248,53.63z" fill="#FFFFFF"/>
    <path d="m127.65,126.744c4.009,1.032 8.1-1.381 9.134-5.391 6.426-24.937 28.926-42.353 54.716-42.353 25.798,0 48.3,17.423 54.72,42.369 0.871,3.384 3.918,5.632 7.259,5.632 0.618,0 1.247-0.077 1.874-0.239 4.012-1.032 6.427-5.121 5.395-9.133-8.129-31.575-36.603-53.629-69.248-53.629-32.635,0-61.107,22.045-69.241,53.61-1.033,4.011 1.38,8.1 5.391,9.134z" fill="#FFFFFF"/>
  </g>
</svg>
